<svg id="eTte3wS1Gkr1" xmlns="http://www.w3.org/2000/svg" xmlns:xlink="http://www.w3.org/1999/xlink"
     viewBox="0 0 300 300" shape-rendering="geometricPrecision" text-rendering="geometricPrecision"
     project-id="fabeb8d7e9eb4aaeaed65c92e8f1189b" export-id="54ea2258eb644b9ebbb77225a96eaa08" cached="false">
    <g transform="matrix(1.8 0 0 1.8-111.62048-119.88967)">
        <path d="M160.538212,128.877296v53.696703c0,0-.455565,14.299664-10.833156,14.299664-31.160743,0-81.275487-8.127213-81.275487-8.127213s0-68.083066,0-68.083066s11.400714-20.514323,13.716006-29.140316c3.33957-12.442106-1.956443-40.272527,5.544768-40.272527C114.818166,51.250541,110,115,110,115s17.042346,0,39.705056,0c10.377591,0,10.833156,13.877296,10.833156,13.877296"
              transform="translate(59.319527 24.762448)" fill="none" stroke="#000" stroke-width="12"
              stroke-linecap="round"/>
        <path d="M160.538217,165.064205h-25.863627h25.863627Z" transform="translate(57.09616 24.698241)" fill="none"
              stroke="#000" stroke-width="6"/>
        <path d="M160.538217,165.064205h-25.863626l-14.136374.000005l40-.000005Z"
              transform="matrix(.61585 0 0 1 117.537282 39.698241)" fill="none" stroke="#000" stroke-width="6"/>
        <path d="M160.538217,149.999998h-25.863627h25.863627Z" transform="translate(57.09616 24.762448)" fill="none"
              stroke="#000" stroke-width="6"/>
        <path d="M160.538217,149.999998h-25.863627h25.863627Z" transform="translate(57.09616 9.762448)" fill="none"
              stroke="#000" stroke-width="6"/>
        <path d="M68.429567,120.663384c0,0-47.57556-5.228772-52.891352,0s-5.420067,71.196562,0,76.21028s52.891352.000004,52.891352,0q.000006-7.925944,0-76.21028Z"
              transform="translate(59.319524 24.762447)" fill="none" stroke="#000" stroke-width="12"/>
        <ellipse rx="30" ry="30" transform="matrix(.25 0 0 0.25 106.790417 159.762446)" stroke="#000"/>
    </g>
</svg>