<svg id="eMyHDwFxO4h1" xmlns="http://www.w3.org/2000/svg" xmlns:xlink="http://www.w3.org/1999/xlink" viewBox="0 0 300 300" shape-rendering="geometricPrecision" text-rendering="geometricPrecision" project-id="61a6c294e38f42edada0c5dab0800d60" export-id="695b6a5545814aed8ea1b378c1f9253b" cached="false"><path d="M73.059461,156.150701c0,0-55.172901-16.126709-55.379025-6.150701-.245236,11.868951,30.866998,24.761689,30.866998,24.761689l36.314117,21.334543L83.953698,300h127.099408l-.907853-91.647753c0,0,6.680295-33.375258,0-52.201546-4.993191-14.071721-12.256014-32.228776-12.256014-32.228776s25.873808-29.95915,25.873808-73.990015c0-4.351305-10.946351-8.427903-13.617794-4.993191-15.887426,20.426689-36.768043,73.08216-36.768043,73.08216s0-52.655471,0-74.443941c0-11.213198-15.278292-3.904659-16.795279.907852q-6.581934,20.880618-16.341353,73.536089c0,0-9.44119-49.760786-20.426691-70.358603-7.262823-13.617794-19.972764-9.973035-19.972764-2.723557c0,20.426689,12.709941,74.443938,12.709941,74.443938Q83.953698,69.904672,73.059461,58.102584c-5.202145-5.635656-14.07172-5.665006-14.07172,7.262824c0,10.894235,14.07172,58.556517,14.07172,58.556517v32.228776Z" transform="translate(29.278932-18.831175)" fill="#fff" stroke="#000" stroke-width="5"/></svg>
